ISO-10303-21;
HEADER;
FILE_DESCRIPTION(('ViewDefinition[DesignTransferView]'),'2;1');
FILE_NAME('/dev/null','2026-06-08T14:11:54+00:00',(''),(''),'IfcOpenShell 0.8.5','IfcOpenShell 0.8.5','Nobody');
FILE_SCHEMA(('IFC4'));
ENDSEC;
DATA;
#1=IFCPROJECT('13LBdJmsv3vgaNlYnPSCQU',$,'8220 Hawthorne Ave - 2nd Floor Addition',$,$,$,$,(#10),#5);
#2=IFCSIUNIT(*,.LENGTHUNIT.,.MILLI.,.METRE.);
#3=IFCSIUNIT(*,.AREAUNIT.,$,.SQUARE_METRE.);
#4=IFCSIUNIT(*,.VOLUMEUNIT.,$,.CUBIC_METRE.);
#5=IFCUNITASSIGNMENT((#3,#4,#2));
#6=IFCCARTESIANPOINT((0.,0.,0.));
#7=IFCDIRECTION((0.,0.,1.));
#8=IFCDIRECTION((1.,0.,0.));
#9=IFCAXIS2PLACEMENT3D(#6,#7,#8);
#10=IFCGEOMETRICREPRESENTATIONCONTEXT($,'Model',3,1.0000000000000001E-05,#9,$);
#11=IFCGEOMETRICREPRESENTATIONSUBCONTEXT('Body','Model',*,*,*,*,#10,$,.MODEL_VIEW.,$);
#12=IFCSITE('1D0LYMSD11TBiDj0bYAYRt',$,'Lot 5 Blk D - Biscayne Beach 3rd Sec',$,$,$,$,$,$,$,$,$,$,$);
#13=IFCBUILDING('2BItplCxX8ORcr09WtxwNZ',$,'8220 Hawthorne Ave',$,$,$,$,$,$,$,$,$);
#14=IFCBUILDINGSTOREY('3UC52J4zn8gg0M5HW7Q0RR',$,'Ground Floor',$,$,$,$,$,$,0.45720000000000005);
#15=IFCBUILDINGSTOREY('0UFeKQMWb72O7XfI0YfLfd',$,'Second Floor (NEW)',$,$,$,$,$,$,4.0233600000000003);
#16=IFCRELAGGREGATES('2vOD8hrgv85Rt$gLrKgUVJ',$,$,$,#1,(#12));
#17=IFCRELAGGREGATES('2tKwY3y9j0l9aBJIiCVmCZ',$,$,$,#12,(#13));
#18=IFCRELAGGREGATES('2mOp1R6lT3XfO7uTdTgctA',$,$,$,#13,(#14,#15));
#19=IFCSLAB('39jPBNdTTCwe4DM31s1Jb$',$,'L1 Floor Slab',$,$,#37,#26,$,$);
#20=IFCCARTESIANPOINTLIST2D(((0.,0.),(12496.799999999999,0.),(12496.799999999999,19507.200000000001),(0.,19507.200000000001)));
#21=IFCINDEXEDPOLYCURVE(#20,$,$);
#22=IFCDIRECTION((0.,0.,1.));
#23=IFCARBITRARYCLOSEDPROFILEDEF(.AREA.,$,#21);
#24=IFCEXTRUDEDAREASOLID(#23,$,#22,213.35999999999999);
#25=IFCSHAPEREPRESENTATION(#11,'Body','SweptSolid',(#24));
#26=IFCPRODUCTDEFINITIONSHAPE($,$,(#25));
#32=IFCRELCONTAINEDINSPATIALSTRUCTURE('1CqsDTpzrEC9kuiy6m9g0O',$,$,$,(#60,#38,#82,#104,#19),#14);
#33=IFCCARTESIANPOINT((2895.5999999999999,6096.,457.20000000000005));
#34=IFCDIRECTION((0.,0.,1.));
#35=IFCDIRECTION((1.,0.,0.));
#36=IFCAXIS2PLACEMENT3D(#33,#34,#35);
#37=IFCLOCALPLACEMENT($,#36);
#38=IFCWALL('3LdzKDogD55Pzu5036Lis0',$,'L1 Wall S',$,$,#59,#49,$,$);
#39=IFCCARTESIANPOINTLIST2D(((0.,0.),(0.,213.35999999999999),(12496.799999999999,213.35999999999999),(12496.799999999999,0.),(0.,0.)));
#40=IFCINDEXEDPOLYCURVE(#39,$,.F.);
#41=IFCDIRECTION((0.,0.,1.));
#42=IFCARBITRARYCLOSEDPROFILEDEF(.AREA.,$,#40);
#43=IFCCARTESIANPOINT((0.,0.,0.));
#44=IFCDIRECTION((0.,0.,1.));
#45=IFCDIRECTION((1.,0.,0.));
#46=IFCAXIS2PLACEMENT3D(#43,#44,#45);
#47=IFCEXTRUDEDAREASOLID(#42,#46,#41,3352.8000000000002);
#48=IFCSHAPEREPRESENTATION(#11,'Body','SweptSolid',(#47));
#49=IFCPRODUCTDEFINITIONSHAPE($,$,(#48));
#55=IFCCARTESIANPOINT((2895.5999999999999,6096.,457.20000000000005));
#56=IFCDIRECTION((0.,0.,1.));
#57=IFCDIRECTION((1.,0.,0.));
#58=IFCAXIS2PLACEMENT3D(#55,#56,#57);
#59=IFCLOCALPLACEMENT($,#58);
#60=IFCWALL('119L27jqb0Kuw$o13GfM0l',$,'L1 Wall N',$,$,#81,#71,$,$);
#61=IFCCARTESIANPOINTLIST2D(((0.,0.),(0.,213.35999999999999),(12496.799999999999,213.35999999999999),(12496.799999999999,0.),(0.,0.)));
#62=IFCINDEXEDPOLYCURVE(#61,$,.F.);
#63=IFCDIRECTION((0.,0.,1.));
#64=IFCARBITRARYCLOSEDPROFILEDEF(.AREA.,$,#62);
#65=IFCCARTESIANPOINT((0.,0.,0.));
#66=IFCDIRECTION((0.,0.,1.));
#67=IFCDIRECTION((1.,0.,0.));
#68=IFCAXIS2PLACEMENT3D(#65,#66,#67);
#69=IFCEXTRUDEDAREASOLID(#64,#68,#63,3352.8000000000002);
#70=IFCSHAPEREPRESENTATION(#11,'Body','SweptSolid',(#69));
#71=IFCPRODUCTDEFINITIONSHAPE($,$,(#70));
#77=IFCCARTESIANPOINT((2895.5999999999999,25389.84,457.20000000000005));
#78=IFCDIRECTION((0.,0.,1.));
#79=IFCDIRECTION((1.,0.,0.));
#80=IFCAXIS2PLACEMENT3D(#77,#78,#79);
#81=IFCLOCALPLACEMENT($,#80);
#82=IFCWALL('3TnTG_h4zC$wcpC6LTi7fq',$,'L1 Wall W',$,$,#103,#93,$,$);
#83=IFCCARTESIANPOINTLIST2D(((0.,0.),(0.,213.35999999999999),(19507.200000000001,213.35999999999999),(19507.200000000001,0.),(0.,0.)));
#84=IFCINDEXEDPOLYCURVE(#83,$,.F.);
#85=IFCDIRECTION((0.,0.,1.));
#86=IFCARBITRARYCLOSEDPROFILEDEF(.AREA.,$,#84);
#87=IFCCARTESIANPOINT((0.,0.,0.));
#88=IFCDIRECTION((0.,0.,1.));
#89=IFCDIRECTION((1.,0.,0.));
#90=IFCAXIS2PLACEMENT3D(#87,#88,#89);
#91=IFCEXTRUDEDAREASOLID(#86,#90,#85,3352.8000000000002);
#92=IFCSHAPEREPRESENTATION(#11,'Body','SweptSolid',(#91));
#93=IFCPRODUCTDEFINITIONSHAPE($,$,(#92));
#99=IFCCARTESIANPOINT((2895.5999999999999,6096.,457.20000000000005));
#100=IFCDIRECTION((0.,0.,1.));
#101=IFCDIRECTION((0.,1.,0.));
#102=IFCAXIS2PLACEMENT3D(#99,#100,#101);
#103=IFCLOCALPLACEMENT($,#102);
#104=IFCWALL('35WvqtSjr0TBx4tAVyeNAk',$,'L1 Wall E',$,$,#125,#115,$,$);
#105=IFCCARTESIANPOINTLIST2D(((0.,0.),(0.,213.35999999999999),(19507.200000000001,213.35999999999999),(19507.200000000001,0.),(0.,0.)));
#106=IFCINDEXEDPOLYCURVE(#105,$,.F.);
#107=IFCDIRECTION((0.,0.,1.));
#108=IFCARBITRARYCLOSEDPROFILEDEF(.AREA.,$,#106);
#109=IFCCARTESIANPOINT((0.,0.,0.));
#110=IFCDIRECTION((0.,0.,1.));
#111=IFCDIRECTION((1.,0.,0.));
#112=IFCAXIS2PLACEMENT3D(#109,#110,#111);
#113=IFCEXTRUDEDAREASOLID(#108,#112,#107,3352.8000000000002);
#114=IFCSHAPEREPRESENTATION(#11,'Body','SweptSolid',(#113));
#115=IFCPRODUCTDEFINITIONSHAPE($,$,(#114));
#121=IFCCARTESIANPOINT((15179.040000000001,6096.,457.20000000000005));
#122=IFCDIRECTION((0.,0.,1.));
#123=IFCDIRECTION((0.,1.,0.));
#124=IFCAXIS2PLACEMENT3D(#121,#122,#123);
#125=IFCLOCALPLACEMENT($,#124);
#126=IFCSLAB('2ATvZH$DL5Tw09EZf5e54y',$,'L2 Floor Slab',$,$,#144,#133,$,$);
#127=IFCCARTESIANPOINTLIST2D(((0.,0.),(10972.800000000001,0.),(10972.800000000001,15240.),(0.,15240.)));
#128=IFCINDEXEDPOLYCURVE(#127,$,$);
#129=IFCDIRECTION((0.,0.,1.));
#130=IFCARBITRARYCLOSEDPROFILEDEF(.AREA.,$,#128);
#131=IFCEXTRUDEDAREASOLID(#130,$,#129,213.35999999999999);
#132=IFCSHAPEREPRESENTATION(#11,'Body','SweptSolid',(#131));
#133=IFCPRODUCTDEFINITIONSHAPE($,$,(#132));
#139=IFCRELCONTAINEDINSPATIALSTRUCTURE('1m92bGph95r8af$LZ6_cS0',$,$,$,(#126,#189,#145,#167,#211,#233),#15);
#140=IFCCARTESIANPOINT((3657.6000000000004,10363.200000000001,4023.3600000000001));
#141=IFCDIRECTION((0.,0.,1.));
#142=IFCDIRECTION((1.,0.,0.));
#143=IFCAXIS2PLACEMENT3D(#140,#141,#142);
#144=IFCLOCALPLACEMENT($,#143);
#145=IFCWALL('2SZ096irbA99fHYi5JuaTC',$,'L2 Wall S',$,$,#166,#156,$,$);
#146=IFCCARTESIANPOINTLIST2D(((0.,0.),(0.,213.35999999999999),(10972.800000000001,213.35999999999999),(10972.800000000001,0.),(0.,0.)));
#147=IFCINDEXEDPOLYCURVE(#146,$,.F.);
#148=IFCDIRECTION((0.,0.,1.));
#149=IFCARBITRARYCLOSEDPROFILEDEF(.AREA.,$,#147);
#150=IFCCARTESIANPOINT((0.,0.,0.));
#151=IFCDIRECTION((0.,0.,1.));
#152=IFCDIRECTION((1.,0.,0.));
#153=IFCAXIS2PLACEMENT3D(#150,#151,#152);
#154=IFCEXTRUDEDAREASOLID(#149,#153,#148,3048.);
#155=IFCSHAPEREPRESENTATION(#11,'Body','SweptSolid',(#154));
#156=IFCPRODUCTDEFINITIONSHAPE($,$,(#155));
#162=IFCCARTESIANPOINT((3657.6000000000004,10363.200000000001,4023.3600000000001));
#163=IFCDIRECTION((0.,0.,1.));
#164=IFCDIRECTION((1.,0.,0.));
#165=IFCAXIS2PLACEMENT3D(#162,#163,#164);
#166=IFCLOCALPLACEMENT($,#165);
#167=IFCWALL('05yn_3sDz17g6EIJjGawD1',$,'L2 Wall N',$,$,#188,#178,$,$);
#168=IFCCARTESIANPOINTLIST2D(((0.,0.),(0.,213.35999999999999),(10972.800000000001,213.35999999999999),(10972.800000000001,0.),(0.,0.)));
#169=IFCINDEXEDPOLYCURVE(#168,$,.F.);
#170=IFCDIRECTION((0.,0.,1.));
#171=IFCARBITRARYCLOSEDPROFILEDEF(.AREA.,$,#169);
#172=IFCCARTESIANPOINT((0.,0.,0.));
#173=IFCDIRECTION((0.,0.,1.));
#174=IFCDIRECTION((1.,0.,0.));
#175=IFCAXIS2PLACEMENT3D(#172,#173,#174);
#176=IFCEXTRUDEDAREASOLID(#171,#175,#170,3048.);
#177=IFCSHAPEREPRESENTATION(#11,'Body','SweptSolid',(#176));
#178=IFCPRODUCTDEFINITIONSHAPE($,$,(#177));
#184=IFCCARTESIANPOINT((3657.6000000000004,25389.84,4023.3600000000001));
#185=IFCDIRECTION((0.,0.,1.));
#186=IFCDIRECTION((1.,0.,0.));
#187=IFCAXIS2PLACEMENT3D(#184,#185,#186);
#188=IFCLOCALPLACEMENT($,#187);
#189=IFCWALL('3aWArLCt1CDRlnafaUM$pO',$,'L2 Wall W',$,$,#210,#200,$,$);
#190=IFCCARTESIANPOINTLIST2D(((0.,0.),(0.,213.35999999999999),(15240.,213.35999999999999),(15240.,0.),(0.,0.)));
#191=IFCINDEXEDPOLYCURVE(#190,$,.F.);
#192=IFCDIRECTION((0.,0.,1.));
#193=IFCARBITRARYCLOSEDPROFILEDEF(.AREA.,$,#191);
#194=IFCCARTESIANPOINT((0.,0.,0.));
#195=IFCDIRECTION((0.,0.,1.));
#196=IFCDIRECTION((1.,0.,0.));
#197=IFCAXIS2PLACEMENT3D(#194,#195,#196);
#198=IFCEXTRUDEDAREASOLID(#193,#197,#192,3048.);
#199=IFCSHAPEREPRESENTATION(#11,'Body','SweptSolid',(#198));
#200=IFCPRODUCTDEFINITIONSHAPE($,$,(#199));
#206=IFCCARTESIANPOINT((3657.6000000000004,10363.200000000001,4023.3600000000001));
#207=IFCDIRECTION((0.,0.,1.));
#208=IFCDIRECTION((0.,1.,0.));
#209=IFCAXIS2PLACEMENT3D(#206,#207,#208);
#210=IFCLOCALPLACEMENT($,#209);
#211=IFCWALL('3CZwRtJ314u9P7ys8ZifY5',$,'L2 Wall E',$,$,#232,#222,$,$);
#212=IFCCARTESIANPOINTLIST2D(((0.,0.),(0.,213.35999999999999),(15240.,213.35999999999999),(15240.,0.),(0.,0.)));
#213=IFCINDEXEDPOLYCURVE(#212,$,.F.);
#214=IFCDIRECTION((0.,0.,1.));
#215=IFCARBITRARYCLOSEDPROFILEDEF(.AREA.,$,#213);
#216=IFCCARTESIANPOINT((0.,0.,0.));
#217=IFCDIRECTION((0.,0.,1.));
#218=IFCDIRECTION((1.,0.,0.));
#219=IFCAXIS2PLACEMENT3D(#216,#217,#218);
#220=IFCEXTRUDEDAREASOLID(#215,#219,#214,3048.);
#221=IFCSHAPEREPRESENTATION(#11,'Body','SweptSolid',(#220));
#222=IFCPRODUCTDEFINITIONSHAPE($,$,(#221));
#228=IFCCARTESIANPOINT((14417.040000000001,10363.200000000001,4023.3600000000001));
#229=IFCDIRECTION((0.,0.,1.));
#230=IFCDIRECTION((0.,1.,0.));
#231=IFCAXIS2PLACEMENT3D(#228,#229,#230);
#232=IFCLOCALPLACEMENT($,#231);
#233=IFCSLAB('34O7wI4wP3WQj4IYYq2pSH',$,'Bay Terrace',$,$,#250,#240,$,$);
#234=IFCCARTESIANPOINTLIST2D(((0.,0.),(10972.800000000001,0.),(10972.800000000001,2743.2000000000016),(0.,2743.2000000000016)));
#235=IFCINDEXEDPOLYCURVE(#234,$,$);
#236=IFCDIRECTION((0.,0.,1.));
#237=IFCARBITRARYCLOSEDPROFILEDEF(.AREA.,$,#235);
#238=IFCEXTRUDEDAREASOLID(#237,$,#236,213.35999999999999);
#239=IFCSHAPEREPRESENTATION(#11,'Body','SweptSolid',(#238));
#240=IFCPRODUCTDEFINITIONSHAPE($,$,(#239));
#246=IFCCARTESIANPOINT((3657.6000000000004,25603.200000000001,4023.3600000000001));
#247=IFCDIRECTION((0.,0.,1.));
#248=IFCDIRECTION((1.,0.,0.));
#249=IFCAXIS2PLACEMENT3D(#246,#247,#248);
#250=IFCLOCALPLACEMENT($,#249);
#251=IFCSPACE('1lTTof1hf99BBgQt4bRKVq',$,'Bedroom 2',$,$,#269,#258,'Bedroom 2',$,$,$);
#252=IFCCARTESIANPOINTLIST2D(((0.,0.),(4419.6000000000004,0.),(4419.6000000000004,6096.),(0.,6096.)));
#253=IFCINDEXEDPOLYCURVE(#252,$,$);
#254=IFCDIRECTION((0.,0.,1.));
#255=IFCARBITRARYCLOSEDPROFILEDEF(.AREA.,$,#253);
#256=IFCEXTRUDEDAREASOLID(#255,$,#254,3139.4400000000005);
#257=IFCSHAPEREPRESENTATION(#11,'Body','SweptSolid',(#256));
#258=IFCPRODUCTDEFINITIONSHAPE($,$,(#257));
#264=IFCRELAGGREGATES('1oKhjf3hH8ZAdJdcxdiWf4',$,$,$,#14,(#274,#296,#318,#340,#251,#362,#384));
#265=IFCCARTESIANPOINT((2895.5999999999999,6096.,670.56000000000006));
#266=IFCDIRECTION((0.,0.,1.));
#267=IFCDIRECTION((1.,0.,0.));
#268=IFCAXIS2PLACEMENT3D(#265,#266,#267);
#269=IFCLOCALPLACEMENT($,#268);
#270=IFCPROPERTYSET('17jHuIWnj2dQDZ$ZF$rRdo',$,'Pset_SpaceCommon',$,(#272,#273));
#271=IFCRELDEFINESBYPROPERTIES('2EaPu3Vaz7sAu7RHlPNHXy',$,$,$,(#251),#270);
#272=IFCPROPERTYSINGLEVALUE('Reference',$,IFCIDENTIFIER('Bedroom 2'),$);
#273=IFCPROPERTYSINGLEVALUE('NetFloorArea_sf',$,IFCREAL(290.),$);
#274=IFCSPACE('3N0ZVg8k52l9o_019ZSre_',$,'Foyer / Stair',$,$,#291,#281,'Foyer / Stair',$,$,$);
#275=IFCCARTESIANPOINTLIST2D(((0.,0.),(3657.6000000000004,0.),(3657.6000000000004,6096.),(0.,6096.)));
#276=IFCINDEXEDPOLYCURVE(#275,$,$);
#277=IFCDIRECTION((0.,0.,1.));
#278=IFCARBITRARYCLOSEDPROFILEDEF(.AREA.,$,#276);
#279=IFCEXTRUDEDAREASOLID(#278,$,#277,3139.4400000000005);
#280=IFCSHAPEREPRESENTATION(#11,'Body','SweptSolid',(#279));
#281=IFCPRODUCTDEFINITIONSHAPE($,$,(#280));
#287=IFCCARTESIANPOINT((7315.2000000000007,6096.,670.56000000000006));
#288=IFCDIRECTION((0.,0.,1.));
#289=IFCDIRECTION((1.,0.,0.));
#290=IFCAXIS2PLACEMENT3D(#287,#288,#289);
#291=IFCLOCALPLACEMENT($,#290);
#292=IFCPROPERTYSET('0Izbg6x4r6De7AreAtsAF7',$,'Pset_SpaceCommon',$,(#294,#295));
#293=IFCRELDEFINESBYPROPERTIES('27jIS$wILD1P_S1d2L1uuf',$,$,$,(#274),#292);
#294=IFCPROPERTYSINGLEVALUE('Reference',$,IFCIDENTIFIER('Foyer / Stair'),$);
#295=IFCPROPERTYSINGLEVALUE('NetFloorArea_sf',$,IFCREAL(240.),$);
#296=IFCSPACE('2hJ2Kw99T29u9U7CbqSEgP',$,'Bedroom 3',$,$,#313,#303,'Bedroom 3',$,$,$);
#297=IFCCARTESIANPOINTLIST2D(((0.,0.),(4419.5999999999985,0.),(4419.5999999999985,6096.),(0.,6096.)));
#298=IFCINDEXEDPOLYCURVE(#297,$,$);
#299=IFCDIRECTION((0.,0.,1.));
#300=IFCARBITRARYCLOSEDPROFILEDEF(.AREA.,$,#298);
#301=IFCEXTRUDEDAREASOLID(#300,$,#299,3139.4400000000005);
#302=IFCSHAPEREPRESENTATION(#11,'Body','SweptSolid',(#301));
#303=IFCPRODUCTDEFINITIONSHAPE($,$,(#302));
#309=IFCCARTESIANPOINT((10972.800000000001,6096.,670.56000000000006));
#310=IFCDIRECTION((0.,0.,1.));
#311=IFCDIRECTION((1.,0.,0.));
#312=IFCAXIS2PLACEMENT3D(#309,#310,#311);
#313=IFCLOCALPLACEMENT($,#312);
#314=IFCPROPERTYSET('2$RInpX_P1n9KCg42VaLYW',$,'Pset_SpaceCommon',$,(#316,#317));
#315=IFCRELDEFINESBYPROPERTIES('0zEiu5SzrEoOcB0tfDdYwH',$,$,$,(#296),#314);
#316=IFCPROPERTYSINGLEVALUE('Reference',$,IFCIDENTIFIER('Bedroom 3'),$);
#317=IFCPROPERTYSINGLEVALUE('NetFloorArea_sf',$,IFCREAL(290.),$);
#318=IFCSPACE('0R4GL_Z1TBHOmofgCnXZ2Q',$,'Den / Office',$,$,#335,#325,'Den / Office',$,$,$);
#319=IFCCARTESIANPOINTLIST2D(((0.,0.),(4419.6000000000004,0.),(4419.6000000000004,5486.3999999999996),(0.,5486.3999999999996)));
#320=IFCINDEXEDPOLYCURVE(#319,$,$);
#321=IFCDIRECTION((0.,0.,1.));
#322=IFCARBITRARYCLOSEDPROFILEDEF(.AREA.,$,#320);
#323=IFCEXTRUDEDAREASOLID(#322,$,#321,3139.4400000000005);
#324=IFCSHAPEREPRESENTATION(#11,'Body','SweptSolid',(#323));
#325=IFCPRODUCTDEFINITIONSHAPE($,$,(#324));
#331=IFCCARTESIANPOINT((2895.5999999999999,12192.,670.56000000000006));
#332=IFCDIRECTION((0.,0.,1.));
#333=IFCDIRECTION((1.,0.,0.));
#334=IFCAXIS2PLACEMENT3D(#331,#332,#333);
#335=IFCLOCALPLACEMENT($,#334);
#336=IFCPROPERTYSET('2gTb$tf_rEifm2Lgx$Lgw2',$,'Pset_SpaceCommon',$,(#338,#339));
#337=IFCRELDEFINESBYPROPERTIES('0GAHYtzoL0tBgZ2QbqZmsr',$,$,$,(#318),#336);
#338=IFCPROPERTYSINGLEVALUE('Reference',$,IFCIDENTIFIER('Den / Office'),$);
#339=IFCPROPERTYSINGLEVALUE('NetFloorArea_sf',$,IFCREAL(261.),$);
#340=IFCSPACE('0Er5bV$FbFpe2sn5sCsysP',$,'Hall',$,$,#357,#347,'Hall',$,$,$);
#341=IFCCARTESIANPOINTLIST2D(((0.,0.),(3657.6000000000004,0.),(3657.6000000000004,5486.3999999999996),(0.,5486.3999999999996)));
#342=IFCINDEXEDPOLYCURVE(#341,$,$);
#343=IFCDIRECTION((0.,0.,1.));
#344=IFCARBITRARYCLOSEDPROFILEDEF(.AREA.,$,#342);
#345=IFCEXTRUDEDAREASOLID(#344,$,#343,3139.4400000000005);
#346=IFCSHAPEREPRESENTATION(#11,'Body','SweptSolid',(#345));
#347=IFCPRODUCTDEFINITIONSHAPE($,$,(#346));
#353=IFCCARTESIANPOINT((7315.2000000000007,12192.,670.56000000000006));
#354=IFCDIRECTION((0.,0.,1.));
#355=IFCDIRECTION((1.,0.,0.));
#356=IFCAXIS2PLACEMENT3D(#353,#354,#355);
#357=IFCLOCALPLACEMENT($,#356);
#358=IFCPROPERTYSET('0JuPAS_Yj5qxF103u3gL7V',$,'Pset_SpaceCommon',$,(#360,#361));
#359=IFCRELDEFINESBYPROPERTIES('3xmhon3qP5EOguDhgcgwO1',$,$,$,(#340),#358);
#360=IFCPROPERTYSINGLEVALUE('Reference',$,IFCIDENTIFIER('Hall'),$);
#361=IFCPROPERTYSINGLEVALUE('NetFloorArea_sf',$,IFCREAL(216.),$);
#362=IFCSPACE('3WawqYcn52L8FxGWPyytrj',$,'Kitchen',$,$,#379,#369,'Kitchen',$,$,$);
#363=IFCCARTESIANPOINTLIST2D(((0.,0.),(4419.5999999999985,0.),(4419.5999999999985,5486.3999999999996),(0.,5486.3999999999996)));
#364=IFCINDEXEDPOLYCURVE(#363,$,$);
#365=IFCDIRECTION((0.,0.,1.));
#366=IFCARBITRARYCLOSEDPROFILEDEF(.AREA.,$,#364);
#367=IFCEXTRUDEDAREASOLID(#366,$,#365,3139.4400000000005);
#368=IFCSHAPEREPRESENTATION(#11,'Body','SweptSolid',(#367));
#369=IFCPRODUCTDEFINITIONSHAPE($,$,(#368));
#375=IFCCARTESIANPOINT((10972.800000000001,12192.,670.56000000000006));
#376=IFCDIRECTION((0.,0.,1.));
#377=IFCDIRECTION((1.,0.,0.));
#378=IFCAXIS2PLACEMENT3D(#375,#376,#377);
#379=IFCLOCALPLACEMENT($,#378);
#380=IFCPROPERTYSET('0kKPQee7z9Zud6474NK5SE',$,'Pset_SpaceCommon',$,(#382,#383));
#381=IFCRELDEFINESBYPROPERTIES('1av$eMkzTB0BPk4A8oNgib',$,$,$,(#362),#380);
#382=IFCPROPERTYSINGLEVALUE('Reference',$,IFCIDENTIFIER('Kitchen'),$);
#383=IFCPROPERTYSINGLEVALUE('NetFloorArea_sf',$,IFCREAL(261.),$);
#384=IFCSPACE('0JWQM2u991NOJG531NO4CD',$,'Great Room (Living / Dining)',$,$,#401,#391,'Great Room (Living / Dining)',$,$,$);
#385=IFCCARTESIANPOINTLIST2D(((0.,0.),(12496.799999999999,0.),(12496.799999999999,7924.8000000000011),(0.,7924.8000000000011)));
#386=IFCINDEXEDPOLYCURVE(#385,$,$);
#387=IFCDIRECTION((0.,0.,1.));
#388=IFCARBITRARYCLOSEDPROFILEDEF(.AREA.,$,#386);
#389=IFCEXTRUDEDAREASOLID(#388,$,#387,3139.4400000000005);
#390=IFCSHAPEREPRESENTATION(#11,'Body','SweptSolid',(#389));
#391=IFCPRODUCTDEFINITIONSHAPE($,$,(#390));
#397=IFCCARTESIANPOINT((2895.5999999999999,17678.399999999998,670.56000000000006));
#398=IFCDIRECTION((0.,0.,1.));
#399=IFCDIRECTION((1.,0.,0.));
#400=IFCAXIS2PLACEMENT3D(#397,#398,#399);
#401=IFCLOCALPLACEMENT($,#400);
#402=IFCPROPERTYSET('1O$oPFmv119hDdGdBq7m2G',$,'Pset_SpaceCommon',$,(#404,#405));
#403=IFCRELDEFINESBYPROPERTIES('1TEEgH0yr4NvjqdOSkH_y5',$,$,$,(#384),#402);
#404=IFCPROPERTYSINGLEVALUE('Reference',$,IFCIDENTIFIER('Great Room (Living / Dining)'),$);
#405=IFCPROPERTYSINGLEVALUE('NetFloorArea_sf',$,IFCREAL(1066.),$);
#406=IFCSPACE('21VHIjKjD8Z9yw80npoI_a',$,'Bedroom 4 / Guest',$,$,#424,#413,'Bedroom 4 / Guest',$,$,$);
#407=IFCCARTESIANPOINTLIST2D(((0.,0.),(5486.3999999999996,0.),(5486.3999999999996,6095.9999999999982),(0.,6095.9999999999982)));
#408=IFCINDEXEDPOLYCURVE(#407,$,$);
#409=IFCDIRECTION((0.,0.,1.));
#410=IFCARBITRARYCLOSEDPROFILEDEF(.AREA.,$,#408);
#411=IFCEXTRUDEDAREASOLID(#410,$,#409,2834.6400000000003);
#412=IFCSHAPEREPRESENTATION(#11,'Body','SweptSolid',(#411));
#413=IFCPRODUCTDEFINITIONSHAPE($,$,(#412));
#419=IFCRELAGGREGATES('0AkkhoDeT9NwTrOxH_A69I',$,$,$,#15,(#429,#451,#406,#473));
#420=IFCCARTESIANPOINT((3657.6000000000004,10363.200000000001,4236.7200000000003));
#421=IFCDIRECTION((0.,0.,1.));
#422=IFCDIRECTION((1.,0.,0.));
#423=IFCAXIS2PLACEMENT3D(#420,#421,#422);
#424=IFCLOCALPLACEMENT($,#423);
#425=IFCPROPERTYSET('3QUU4n0Xj8rvwvunDuIJYu',$,'Pset_SpaceCommon',$,(#427,#428));
#426=IFCRELDEFINESBYPROPERTIES('3bqymdpY12R9RhdKD0fY8B',$,$,$,(#406),#425);
#427=IFCPROPERTYSINGLEVALUE('Reference',$,IFCIDENTIFIER('Bedroom 4 / Guest'),$);
#428=IFCPROPERTYSINGLEVALUE('NetFloorArea_sf',$,IFCREAL(360.),$);
#429=IFCSPACE('32VT2DkZjCUhJ1wzBqXxGb',$,'Office / Loft',$,$,#446,#436,'Office / Loft',$,$,$);
#430=IFCCARTESIANPOINTLIST2D(((0.,0.),(5486.4000000000015,0.),(5486.4000000000015,6095.9999999999982),(0.,6095.9999999999982)));
#431=IFCINDEXEDPOLYCURVE(#430,$,$);
#432=IFCDIRECTION((0.,0.,1.));
#433=IFCARBITRARYCLOSEDPROFILEDEF(.AREA.,$,#431);
#434=IFCEXTRUDEDAREASOLID(#433,$,#432,2834.6400000000003);
#435=IFCSHAPEREPRESENTATION(#11,'Body','SweptSolid',(#434));
#436=IFCPRODUCTDEFINITIONSHAPE($,$,(#435));
#442=IFCCARTESIANPOINT((9144.,10363.200000000001,4236.7200000000003));
#443=IFCDIRECTION((0.,0.,1.));
#444=IFCDIRECTION((1.,0.,0.));
#445=IFCAXIS2PLACEMENT3D(#442,#443,#444);
#446=IFCLOCALPLACEMENT($,#445);
#447=IFCPROPERTYSET('1kkb5pwJzCyRfZcJd$gs5T',$,'Pset_SpaceCommon',$,(#449,#450));
#448=IFCRELDEFINESBYPROPERTIES('1wZTVyt0PBrx68n6YsR_2K',$,$,$,(#429),#447);
#449=IFCPROPERTYSINGLEVALUE('Reference',$,IFCIDENTIFIER('Office / Loft'),$);
#450=IFCPROPERTYSINGLEVALUE('NetFloorArea_sf',$,IFCREAL(360.),$);
#451=IFCSPACE('2vF$hnCwj3nwe3MnmUBxpA',$,'Primary Bedroom',$,$,#468,#458,'Primary Bedroom',$,$,$);
#452=IFCCARTESIANPOINTLIST2D(((0.,0.),(6705.6000000000004,0.),(6705.6000000000004,9144.0000000000018),(0.,9144.0000000000018)));
#453=IFCINDEXEDPOLYCURVE(#452,$,$);
#454=IFCDIRECTION((0.,0.,1.));
#455=IFCARBITRARYCLOSEDPROFILEDEF(.AREA.,$,#453);
#456=IFCEXTRUDEDAREASOLID(#455,$,#454,2834.6400000000003);
#457=IFCSHAPEREPRESENTATION(#11,'Body','SweptSolid',(#456));
#458=IFCPRODUCTDEFINITIONSHAPE($,$,(#457));
#464=IFCCARTESIANPOINT((3657.6000000000004,16459.199999999997,4236.7200000000003));
#465=IFCDIRECTION((0.,0.,1.));
#466=IFCDIRECTION((1.,0.,0.));
#467=IFCAXIS2PLACEMENT3D(#464,#465,#466);
#468=IFCLOCALPLACEMENT($,#467);
#469=IFCPROPERTYSET('0dvhseXLTC9fFZJ9yZ7rv4',$,'Pset_SpaceCommon',$,(#471,#472));
#470=IFCRELDEFINESBYPROPERTIES('2S__ACeDX5mwDkUsVLnBNP',$,$,$,(#451),#469);
#471=IFCPROPERTYSINGLEVALUE('Reference',$,IFCIDENTIFIER('Primary Bedroom'),$);
#472=IFCPROPERTYSINGLEVALUE('NetFloorArea_sf',$,IFCREAL(660.),$);
#473=IFCSPACE('35irmBhbX4wgsjswH9uL7Z',$,'Primary Bath + WIC',$,$,#490,#480,'Primary Bath + WIC',$,$,$);
#474=IFCCARTESIANPOINTLIST2D(((0.,0.),(4267.2000000000007,0.),(4267.2000000000007,9144.0000000000018),(0.,9144.0000000000018)));
#475=IFCINDEXEDPOLYCURVE(#474,$,$);
#476=IFCDIRECTION((0.,0.,1.));
#477=IFCARBITRARYCLOSEDPROFILEDEF(.AREA.,$,#475);
#478=IFCEXTRUDEDAREASOLID(#477,$,#476,2834.6400000000003);
#479=IFCSHAPEREPRESENTATION(#11,'Body','SweptSolid',(#478));
#480=IFCPRODUCTDEFINITIONSHAPE($,$,(#479));
#486=IFCCARTESIANPOINT((10363.200000000001,16459.199999999997,4236.7200000000003));
#487=IFCDIRECTION((0.,0.,1.));
#488=IFCDIRECTION((1.,0.,0.));
#489=IFCAXIS2PLACEMENT3D(#486,#487,#488);
#490=IFCLOCALPLACEMENT($,#489);
#491=IFCPROPERTYSET('1nfj9EiuL3H9lLTPR9UqWS',$,'Pset_SpaceCommon',$,(#493,#494));
#492=IFCRELDEFINESBYPROPERTIES('23YyEnJQD1$vvbVuftieGc',$,$,$,(#473),#491);
#493=IFCPROPERTYSINGLEVALUE('Reference',$,IFCIDENTIFIER('Primary Bath + WIC'),$);
#494=IFCPROPERTYSINGLEVALUE('NetFloorArea_sf',$,IFCREAL(420.),$);
ENDSEC;
END-ISO-10303-21;
